<?xml version="1.0" encoding="utf-8"?>
<!-- Generator: Adobe Illustrator 22.1.0, SVG Export Plug-In . SVG Version: 6.00 Build 0)  -->
<svg version="1.1" id="Layer_1" xmlns="http://www.w3.org/2000/svg" xmlns:xlink="http://www.w3.org/1999/xlink" x="0px" y="0px"
	 viewBox="0 0 32 32" style="enable-background:new 0 0 32 32;" xml:space="preserve">
<title>spacex</title>
<path d="M31.9,9.3C31.9,9.3,31.9,9.3,31.9,9.3C31.9,9.3,31.9,9.3,31.9,9.3c-20.2,2-29.7,10.8-31.9,13l0.3,0.5h3.5
	C13,13.5,25.4,10.4,31.9,9.4l0,0c0,0,0,0,0,0C32,9.4,32,9.4,31.9,9.3C32,9.3,32,9.3,31.9,9.3L31.9,9.3z M0.5,14l-0.2,0.4l4.3,3.2
	c0.9-0.5,1.8-1,2.7-1.4L4.4,14H0.5z M10.1,18.2c-0.7,0.5-1.4,1.1-2.2,1.8l3.8,2.8h3.9l0.2-0.4L10.1,18.2z"/>
</svg>
